<svg width="1062" height="866" viewBox="0 0 1062 866" fill="none" xmlns="http://www.w3.org/2000/svg">
<rect width="1062" height="866" fill="white"/>
<path d="M238.86 762C245.86 762 250.5 763 252.78 765C254.86 766.8 255.9 769.58 255.9 773.34C255.9 779.18 252.86 783.16 246.78 785.28L255.42 798.3L260.58 798.84C260.58 800.56 260.12 802.28 259.2 804H250.5L238.74 786.06H236.82L236.64 798.3L241.02 798.78C241.02 800.42 240.56 802.16 239.64 804H224.82L224.28 800.7C226.68 799.74 228.36 799.16 229.32 798.96C229.24 794.04 229.14 788.1 229.02 781.14C228.9 774.18 228.82 769.52 228.78 767.16L223.8 765.66C223.84 764.74 224.02 763.52 224.34 762H238.86ZM243.6 768.42C242.36 768.14 240.7 768 238.62 768H236.94C236.86 773.52 236.82 777.66 236.82 780.42L239.76 780.36C242.12 780.32 243.98 779.84 245.34 778.92C246.74 777.96 247.44 776.12 247.44 773.4C247.44 770.68 246.16 769.02 243.6 768.42ZM279.195 798.84C280.555 798.84 283.315 797.9 287.475 796.02C288.355 797.3 289.015 798.78 289.455 800.46C287.255 801.82 285.095 802.88 282.975 803.64C280.895 804.36 279.415 804.72 278.535 804.72C273.695 804.72 270.015 803.38 267.495 800.7C265.015 798.02 263.775 794.22 263.775 789.3C263.775 784.34 265.015 780.36 267.495 777.36C269.975 774.32 273.655 772.8 278.535 772.8C282.415 772.8 285.375 774.06 287.415 776.58C289.455 779.1 290.475 782.38 290.475 786.42C290.475 787.26 289.995 788.22 289.035 789.3L271.755 789C271.835 792.2 272.435 794.64 273.555 796.32C274.675 798 276.555 798.84 279.195 798.84ZM277.995 777.78C276.475 777.78 275.055 778.08 273.735 778.68C272.815 780.6 272.235 782.38 271.995 784.02C275.115 783.9 278.655 783.82 282.615 783.78C282.415 779.78 280.875 777.78 277.995 777.78ZM310.498 777.78L309.538 777.72C307.298 777.72 305.498 778.5 304.138 780.06C302.818 781.58 302.158 784.16 302.158 787.8C302.158 791.4 302.658 794.14 303.658 796.02C304.698 797.9 306.678 798.84 309.598 798.84C310.958 798.84 313.838 797.92 318.238 796.08C319.238 797.48 319.778 798.94 319.858 800.46C317.658 801.82 315.498 802.88 313.378 803.64C311.298 804.4 309.818 804.78 308.938 804.78C304.018 804.78 300.338 803.44 297.898 800.76C295.458 798.04 294.238 794.24 294.238 789.36C294.238 778.32 299.218 772.8 309.178 772.8C310.898 772.8 312.658 773.02 314.458 773.46C316.298 773.86 317.738 774.38 318.778 775.02C318.658 779.02 318.218 781.92 317.458 783.72C316.138 784.04 314.278 784.2 311.878 784.2L310.498 777.78ZM334.119 759.42L335.559 759.48C335.559 761.56 335.299 763.38 334.779 764.94C334.699 769.5 334.659 772.92 334.659 775.2C335.939 774.64 337.399 774.1 339.039 773.58C340.679 773.06 341.699 772.8 342.099 772.8C346.179 772.8 349.099 773.72 350.859 775.56C352.659 777.4 353.559 780.3 353.559 784.26C353.559 784.66 353.359 789.32 352.959 798.24L357.639 798.84C357.639 800.56 357.179 802.28 356.259 804H341.319L340.779 800.7C343.459 799.62 345.179 799.04 345.939 798.96C345.859 794.64 345.759 790.82 345.639 787.5C345.519 784.14 345.199 781.92 344.679 780.84C344.159 779.76 343.319 779.22 342.159 779.22C341.039 779.22 339.739 779.36 338.259 779.64C336.819 779.88 335.699 780.18 334.899 780.54L334.239 798.24L338.919 798.78C338.919 800.42 338.459 802.16 337.539 804H322.599L322.059 800.7C324.539 799.78 326.339 799.18 327.459 798.9L326.319 765.6C324.439 765.4 322.859 765.1 321.579 764.7C321.579 763.7 321.719 762.26 321.999 760.38C324.359 759.74 328.399 759.42 334.119 759.42ZM375.23 798.84C376.59 798.84 379.35 797.9 383.51 796.02C384.39 797.3 385.05 798.78 385.49 800.46C383.29 801.82 381.13 802.88 379.01 803.64C376.93 804.36 375.45 804.72 374.57 804.72C369.73 804.72 366.05 803.38 363.53 800.7C361.05 798.02 359.81 794.22 359.81 789.3C359.81 784.34 361.05 780.36 363.53 777.36C366.01 774.32 369.69 772.8 374.57 772.8C378.45 772.8 381.41 774.06 383.45 776.58C385.49 779.1 386.51 782.38 386.51 786.42C386.51 787.26 386.03 788.22 385.07 789.3L367.79 789C367.87 792.2 368.47 794.64 369.59 796.32C370.71 798 372.59 798.84 375.23 798.84ZM374.03 777.78C372.51 777.78 371.09 778.08 369.77 778.68C368.85 780.6 368.27 782.38 368.03 784.02C371.15 783.9 374.69 783.82 378.65 783.78C378.45 779.78 376.91 777.78 374.03 777.78ZM407.673 779.28C407.593 779.08 407.193 778.98 406.473 778.98C405.753 778.98 404.513 779.52 402.753 780.6C402.593 788.44 402.493 794.32 402.453 798.24L407.133 798.84C407.133 800.56 406.673 802.28 405.753 804H390.813L390.273 800.7C392.753 799.78 394.553 799.18 395.673 798.9L395.013 779.46C392.933 779.3 391.193 779 389.793 778.56L390.213 774.24C391.293 773.76 395.193 773.44 401.913 773.28C402.273 773.64 402.453 774.34 402.453 775.38C405.973 773.66 408.193 772.8 409.113 772.8C410.073 772.8 411.233 773.04 412.593 773.52C413.993 773.96 415.053 774.44 415.773 774.96V775.98C415.773 779.26 415.373 782.3 414.573 785.1C413.893 785.38 412.993 785.52 411.873 785.52C410.753 785.52 409.713 785.46 408.753 785.34C408.633 784.82 408.273 782.8 407.673 779.28ZM433.486 777.78L432.526 777.72C430.286 777.72 428.486 778.5 427.126 780.06C425.806 781.58 425.146 784.16 425.146 787.8C425.146 791.4 425.646 794.14 426.646 796.02C427.686 797.9 429.666 798.84 432.586 798.84C433.946 798.84 436.826 797.92 441.226 796.08C442.226 797.48 442.766 798.94 442.846 800.46C440.646 801.82 438.486 802.88 436.366 803.64C434.286 804.4 432.806 804.78 431.926 804.78C427.006 804.78 423.326 803.44 420.886 800.76C418.446 798.04 417.226 794.24 417.226 789.36C417.226 778.32 422.206 772.8 432.166 772.8C433.886 772.8 435.646 773.02 437.446 773.46C439.286 773.86 440.726 774.38 441.766 775.02C441.646 779.02 441.206 781.92 440.446 783.72C439.126 784.04 437.266 784.2 434.866 784.2L433.486 777.78ZM457.107 759.42L458.547 759.48C458.547 761.56 458.287 763.38 457.767 764.94C457.687 769.5 457.647 772.92 457.647 775.2C458.927 774.64 460.387 774.1 462.027 773.58C463.667 773.06 464.687 772.8 465.087 772.8C469.167 772.8 472.087 773.72 473.847 775.56C475.647 777.4 476.547 780.3 476.547 784.26C476.547 784.66 476.347 789.32 475.947 798.24L480.627 798.84C480.627 800.56 480.167 802.28 479.247 804H464.307L463.767 800.7C466.447 799.62 468.167 799.04 468.927 798.96C468.847 794.64 468.747 790.82 468.627 787.5C468.507 784.14 468.187 781.92 467.667 780.84C467.147 779.76 466.307 779.22 465.147 779.22C464.027 779.22 462.727 779.36 461.247 779.64C459.807 779.88 458.687 780.18 457.887 780.54L457.227 798.24L461.907 798.78C461.907 800.42 461.447 802.16 460.527 804H445.587L445.047 800.7C447.527 799.78 449.327 799.18 450.447 798.9L449.307 765.6C447.427 765.4 445.847 765.1 444.567 764.7C444.567 763.7 444.707 762.26 444.987 760.38C447.347 759.74 451.387 759.42 457.107 759.42ZM498.218 798.84C499.578 798.84 502.338 797.9 506.498 796.02C507.378 797.3 508.038 798.78 508.478 800.46C506.278 801.82 504.118 802.88 501.998 803.64C499.918 804.36 498.438 804.72 497.558 804.72C492.718 804.72 489.038 803.38 486.518 800.7C484.038 798.02 482.798 794.22 482.798 789.3C482.798 784.34 484.038 780.36 486.518 777.36C488.998 774.32 492.678 772.8 497.558 772.8C501.438 772.8 504.398 774.06 506.438 776.58C508.478 779.1 509.498 782.38 509.498 786.42C509.498 787.26 509.018 788.22 508.058 789.3L490.778 789C490.858 792.2 491.458 794.64 492.578 796.32C493.698 798 495.578 798.84 498.218 798.84ZM497.018 777.78C495.498 777.78 494.078 778.08 492.758 778.68C491.838 780.6 491.258 782.38 491.018 784.02C494.138 783.9 497.678 783.82 501.638 783.78C501.438 779.78 499.898 777.78 497.018 777.78ZM546.488 798.36C553.128 798.36 556.448 793.26 556.448 783.06C556.448 772.86 553.128 767.76 546.488 767.76C543.608 767.76 541.088 768.2 538.928 769.08C537.088 772.92 536.168 777.38 536.168 782.46C536.168 787.5 536.928 791.42 538.448 794.22C539.968 796.98 542.648 798.36 546.488 798.36ZM546.488 761.28C553.168 761.28 557.868 763.04 560.587 766.56C563.308 770.04 564.668 775.38 564.668 782.58C564.668 787.1 564.088 790.96 562.928 794.16C561.768 797.36 559.808 799.92 557.048 801.84C554.288 803.76 550.768 804.72 546.488 804.72C539.968 804.72 535.228 802.9 532.268 799.26C529.348 795.62 527.888 790.32 527.888 783.36C527.888 768.64 534.088 761.28 546.488 761.28ZM586.535 804.72C584.215 804.72 581.775 803.96 579.215 802.44C579.135 806.68 579.095 809.88 579.095 812.04L583.775 812.58C583.775 814.34 583.315 816.08 582.395 817.8H567.455L566.915 814.5C569.475 813.54 571.275 812.94 572.315 812.7L571.175 779.4C569.295 779.24 567.715 778.94 566.435 778.5C566.435 777.02 566.575 775.58 566.855 774.18C568.535 773.82 572.255 773.5 578.015 773.22C578.335 773.74 578.695 774.62 579.095 775.86C583.255 773.82 585.995 772.8 587.315 772.8C591.275 772.8 594.215 774.2 596.135 777C598.055 779.76 599.015 783.48 599.015 788.16C599.015 792.84 597.935 796.78 595.775 799.98C593.655 803.14 590.575 804.72 586.535 804.72ZM579.575 781.14L579.335 796.32C580.255 797.16 581.335 797.9 582.575 798.54C583.855 799.14 584.935 799.44 585.815 799.44C589.335 799.44 591.095 796.06 591.095 789.3C591.095 786.78 590.835 784.76 590.315 783.24C589.835 781.72 589.255 780.66 588.575 780.06C587.935 779.42 587.175 779.1 586.295 779.1C584.535 779.1 582.295 779.78 579.575 781.14ZM615.816 798.84C617.176 798.84 619.936 797.9 624.096 796.02C624.976 797.3 625.636 798.78 626.076 800.46C623.876 801.82 621.716 802.88 619.596 803.64C617.516 804.36 616.036 804.72 615.156 804.72C610.316 804.72 606.636 803.38 604.116 800.7C601.636 798.02 600.396 794.22 600.396 789.3C600.396 784.34 601.636 780.36 604.116 777.36C606.596 774.32 610.276 772.8 615.156 772.8C619.036 772.8 621.996 774.06 624.036 776.58C626.076 779.1 627.096 782.38 627.096 786.42C627.096 787.26 626.616 788.22 625.656 789.3L608.376 789C608.456 792.2 609.056 794.64 610.176 796.32C611.296 798 613.176 798.84 615.816 798.84ZM614.616 777.78C613.096 777.78 611.676 778.08 610.356 778.68C609.436 780.6 608.856 782.38 608.616 784.02C611.736 783.9 615.276 783.82 619.236 783.78C619.036 779.78 617.496 777.78 614.616 777.78ZM648.259 779.28C648.179 779.08 647.779 778.98 647.059 778.98C646.339 778.98 645.099 779.52 643.339 780.6C643.179 788.44 643.079 794.32 643.039 798.24L647.719 798.84C647.719 800.56 647.259 802.28 646.339 804H631.399L630.859 800.7C633.339 799.78 635.139 799.18 636.259 798.9L635.599 779.46C633.519 779.3 631.779 779 630.379 778.56L630.799 774.24C631.879 773.76 635.779 773.44 642.499 773.28C642.859 773.64 643.039 774.34 643.039 775.38C646.559 773.66 648.779 772.8 649.699 772.8C650.659 772.8 651.819 773.04 653.179 773.52C654.579 773.96 655.639 774.44 656.359 774.96V775.98C656.359 779.26 655.959 782.3 655.159 785.1C654.479 785.38 653.579 785.52 652.459 785.52C651.339 785.52 650.299 785.46 649.339 785.34C649.219 784.82 648.859 782.8 648.259 779.28ZM668.792 804.72C665.392 804.72 662.752 804.02 660.872 802.62C659.032 801.22 658.112 798.86 658.112 795.54C658.112 792.38 659.212 789.8 661.412 787.8C662.692 786.64 664.472 785.96 666.752 785.76C669.032 785.56 672.172 785.46 676.172 785.46V784.5C676.172 782.06 675.772 780.28 674.972 779.16C674.212 778 672.852 777.42 670.892 777.42C669.892 777.42 668.992 777.62 668.192 778.02L666.752 783.24L662.312 783.12C661.312 781.6 660.772 779.18 660.692 775.86C661.492 775.46 663.372 774.86 666.332 774.06C669.292 773.22 671.192 772.8 672.032 772.8C676.352 772.8 679.492 773.7 681.452 775.5C683.412 777.26 684.392 780.08 684.392 783.96C684.392 787.8 684.212 792.88 683.852 799.2C686.132 799.4 687.892 799.74 689.132 800.22C689.172 800.7 689.192 801.28 689.192 801.96L689.132 803.28C686.252 804.24 683.352 804.72 680.432 804.72C679.672 804.72 679.112 804.7 678.752 804.66C678.152 803.46 677.792 802.02 677.672 800.34H677.372C676.612 801.06 675.272 801.98 673.352 803.1C671.472 804.18 669.952 804.72 668.792 804.72ZM665.792 795.9C665.792 797.22 666.192 798.2 666.992 798.84C667.832 799.44 668.772 799.74 669.812 799.74C670.852 799.74 672.092 799.28 673.532 798.36C674.972 797.4 676.132 796.54 677.012 795.78L676.712 790.26C673.552 790.42 671.172 790.72 669.572 791.16C667.052 791.68 665.792 793.26 665.792 795.9ZM697.116 804.72L695.796 804.66C695.556 804.22 695.236 803.4 694.836 802.2C694.436 801 694.216 800.1 694.176 799.5C693.976 795.54 693.756 788.68 693.516 778.92H689.316L689.496 775.5C690.416 774.86 691.516 774.28 692.796 773.76L697.656 766.08C699.216 766.24 700.436 766.66 701.316 767.34L701.256 773.04C703.776 773.12 706.116 773.36 708.276 773.76C708.276 775.36 707.776 777.08 706.776 778.92H701.196C701.036 787.32 700.936 793.62 700.896 797.82C702.496 797.98 704.676 798.44 707.436 799.2L707.376 802.32C706.696 802.76 705.176 803.28 702.816 803.88C700.496 804.44 698.596 804.72 697.116 804.72ZM723.195 773.28C723.955 773.28 724.435 773.3 724.635 773.34C724.635 775.3 724.295 777.12 723.615 778.8C723.455 787.44 723.355 793.92 723.315 798.24L727.995 798.78C727.995 800.42 727.535 802.16 726.615 804H711.675L711.135 800.7C713.615 799.78 715.415 799.18 716.535 798.9L715.875 779.46C713.515 779.22 711.775 778.92 710.655 778.56C710.655 777.56 710.795 776.12 711.075 774.24C713.435 773.6 717.475 773.28 723.195 773.28ZM723.195 761.94C723.555 763.74 723.735 765.12 723.735 766.08C723.735 767 723.655 768.04 723.495 769.2C721.895 769.56 720.535 769.74 719.415 769.74C718.335 769.74 717.015 769.68 715.455 769.56C715.095 767.76 714.915 766.4 714.915 765.48C714.915 764.52 714.995 763.46 715.155 762.3C716.755 761.94 718.095 761.76 719.175 761.76C720.295 761.76 721.635 761.82 723.195 761.94ZM745.013 777.6C743.573 777.6 741.933 777.96 740.093 778.68C739.573 779.48 739.073 780.9 738.593 782.94C738.153 784.94 737.933 786.96 737.933 789C737.933 792.76 738.493 795.44 739.613 797.04C740.733 798.6 742.533 799.38 745.013 799.38C747.533 799.38 749.353 798.6 750.473 797.04C751.593 795.44 752.153 792.72 752.153 788.88C752.153 785 751.573 782.16 750.413 780.36C749.293 778.52 747.493 777.6 745.013 777.6ZM745.013 772.8C749.693 772.8 753.453 774.24 756.293 777.12C759.173 779.96 760.613 783.94 760.613 789.06C760.613 794.14 759.193 798.02 756.353 800.7C753.513 803.38 749.733 804.72 745.013 804.72C740.293 804.72 736.513 803.38 733.673 800.7C730.873 798.02 729.473 794.14 729.473 789.06C729.473 783.94 730.893 779.96 733.733 777.12C736.573 774.24 740.333 772.8 745.013 772.8ZM781.438 772.8C785.438 772.8 788.338 773.78 790.138 775.74C791.938 777.7 792.838 780.44 792.838 783.96C792.838 787.48 792.638 792.24 792.238 798.24L796.978 798.78C796.978 800.42 796.518 802.16 795.598 804H780.658L780.118 800.7C781.998 799.94 783.738 799.34 785.338 798.9C785.218 794.3 785.098 790.44 784.978 787.32C784.858 784.16 784.558 782.02 784.078 780.9C783.598 779.78 782.538 779.22 780.898 779.22C778.418 779.22 776.198 779.66 774.238 780.54C774.198 782.26 774.078 785.08 773.878 789C773.718 792.88 773.618 795.96 773.578 798.24L778.258 798.78C778.258 800.42 777.798 802.16 776.878 804H761.938L761.398 800.7C763.398 799.94 765.198 799.34 766.798 798.9C766.758 796.5 766.618 793.18 766.378 788.94C766.178 784.7 766.058 781.56 766.018 779.52C764.538 779.36 762.958 779.06 761.278 778.62L761.578 774.3C764.378 773.54 767.538 773.16 771.058 773.16C771.498 773.44 772.098 774.3 772.858 775.74C774.218 775.06 775.878 774.4 777.838 773.76C779.798 773.12 780.998 772.8 781.438 772.8ZM818.41 772.8C822.41 772.8 825.31 773.78 827.11 775.74C828.91 777.7 829.81 780.44 829.81 783.96C829.81 787.48 829.61 792.24 829.21 798.24L833.95 798.78C833.95 800.42 833.49 802.16 832.57 804H817.63L817.09 800.7C818.97 799.94 820.71 799.34 822.31 798.9C822.19 794.3 822.07 790.44 821.95 787.32C821.83 784.16 821.53 782.02 821.05 780.9C820.57 779.78 819.51 779.22 817.87 779.22C815.39 779.22 813.17 779.66 811.21 780.54C811.17 782.26 811.05 785.08 810.85 789C810.69 792.88 810.59 795.96 810.55 798.24L815.23 798.78C815.23 800.42 814.77 802.16 813.85 804H798.91L798.37 800.7C800.37 799.94 802.17 799.34 803.77 798.9C803.73 796.5 803.59 793.18 803.35 788.94C803.15 784.7 803.03 781.56 802.99 779.52C801.51 779.36 799.93 779.06 798.25 778.62L798.55 774.3C801.35 773.54 804.51 773.16 808.03 773.16C808.47 773.44 809.07 774.3 809.83 775.74C811.19 775.06 812.85 774.4 814.81 773.76C816.77 773.12 817.97 772.8 818.41 772.8ZM851.363 798.84C852.723 798.84 855.483 797.9 859.643 796.02C860.523 797.3 861.183 798.78 861.623 800.46C859.423 801.82 857.263 802.88 855.143 803.64C853.063 804.36 851.583 804.72 850.703 804.72C845.863 804.72 842.183 803.38 839.663 800.7C837.183 798.02 835.943 794.22 835.943 789.3C835.943 784.34 837.183 780.36 839.663 777.36C842.143 774.32 845.823 772.8 850.703 772.8C854.583 772.8 857.543 774.06 859.583 776.58C861.623 779.1 862.643 782.38 862.643 786.42C862.643 787.26 862.163 788.22 861.203 789.3L843.923 789C844.003 792.2 844.603 794.64 845.723 796.32C846.843 798 848.723 798.84 851.363 798.84ZM850.163 777.78C848.643 777.78 847.223 778.08 845.903 778.68C844.983 780.6 844.403 782.38 844.163 784.02C847.283 783.9 850.823 783.82 854.783 783.78C854.583 779.78 853.043 777.78 850.163 777.78ZM877.926 759.42C878.686 759.42 879.166 759.44 879.366 759.48C879.366 761.56 879.106 763.38 878.586 764.94C878.546 767.42 878.486 770.92 878.406 775.44C878.246 785.36 878.126 792.96 878.046 798.24L882.726 798.78C882.726 800.42 882.266 802.16 881.346 804H866.406L865.866 800.7C868.346 799.78 870.146 799.18 871.266 798.9L870.126 765.6C868.246 765.4 866.666 765.1 865.386 764.7C865.386 763.22 865.526 761.78 865.806 760.38C868.166 759.74 872.206 759.42 877.926 759.42ZM895.621 759.42C896.381 759.42 896.861 759.44 897.061 759.48C897.061 761.56 896.801 763.38 896.281 764.94C896.241 767.42 896.181 770.92 896.101 775.44C895.941 785.36 895.821 792.96 895.741 798.24L900.421 798.78C900.421 800.42 899.961 802.16 899.041 804H884.101L883.561 800.7C886.041 799.78 887.841 799.18 888.961 798.9L887.821 765.6C885.941 765.4 884.361 765.1 883.081 764.7C883.081 763.22 883.221 761.78 883.501 760.38C885.861 759.74 889.901 759.42 895.621 759.42ZM917.457 798.84C918.817 798.84 921.577 797.9 925.737 796.02C926.617 797.3 927.277 798.78 927.717 800.46C925.517 801.82 923.357 802.88 921.237 803.64C919.157 804.36 917.677 804.72 916.797 804.72C911.957 804.72 908.277 803.38 905.757 800.7C903.277 798.02 902.037 794.22 902.037 789.3C902.037 784.34 903.277 780.36 905.757 777.36C908.237 774.32 911.917 772.8 916.797 772.8C920.677 772.8 923.637 774.06 925.677 776.58C927.717 779.1 928.737 782.38 928.737 786.42C928.737 787.26 928.257 788.22 927.297 789.3L910.017 789C910.097 792.2 910.697 794.64 911.817 796.32C912.937 798 914.817 798.84 917.457 798.84ZM916.257 777.78C914.737 777.78 913.317 778.08 911.997 778.68C911.077 780.6 910.497 782.38 910.257 784.02C913.377 783.9 916.917 783.82 920.877 783.78C920.677 779.78 919.137 777.78 916.257 777.78Z" fill="#11CC89"/>
<g clip-path="url(#clip0_112_418)">
<path d="M993.773 683.847H157C166.231 658.853 177.6 637.647 201.63 631.359C236.784 622.17 273.986 647.438 309.062 637.937C328.989 632.545 344.678 616.831 361.162 603.783C423.357 554.549 508.585 540 582.18 566.057C620.647 579.672 655.7 603.481 695.106 613.603C746.063 626.697 799.352 615.838 851.754 614.049C902.79 612.308 975.914 634.387 993.773 683.847Z" fill="#0F1011" fill-opacity="0.17"/>
<path d="M778.087 36H157V485.786H778.087V36Z" fill="#DEE8F5"/>
<path d="M778.087 36H157V73.051H778.087V36Z" fill="#C1D8ED"/>
<path d="M757.285 63.822C762.419 63.822 766.581 59.66 766.581 54.526C766.581 49.3919 762.419 45.23 757.285 45.23C752.151 45.23 747.989 49.3919 747.989 54.526C747.989 59.66 752.151 63.822 757.285 63.822Z" fill="white"/>
<path d="M678.522 117.52H592.719V407.462H678.522V117.52Z" fill="#8DDBE0"/>
<path d="M592.718 379.635H199.334V405.902H592.718V379.635Z" fill="#C1D8ED"/>
<path d="M678.522 105.116H199.318V129.924H678.522V105.116Z" fill="white"/>
<path d="M199.318 105.116V407.462H678.522V105.116" stroke="white" stroke-width="2.813" stroke-miterlimit="10"/>
<path d="M279.273 117.52V407.462" stroke="white" stroke-width="2.813" stroke-miterlimit="10"/>
<path d="M678.522 156.191H199.334" stroke="white" stroke-width="2.813" stroke-miterlimit="10"/>
<path d="M678.522 184.096H199.334" stroke="white" stroke-width="2.813" stroke-miterlimit="10"/>
<path d="M678.522 212.002H199.334" stroke="white" stroke-width="2.813" stroke-miterlimit="10"/>
<path d="M678.522 239.907H199.334" stroke="white" stroke-width="2.813" stroke-miterlimit="10"/>
<path d="M678.522 267.813H199.334" stroke="white" stroke-width="2.813" stroke-miterlimit="10"/>
<path d="M678.522 295.718H199.334" stroke="white" stroke-width="2.813" stroke-miterlimit="10"/>
<path d="M678.522 323.624H199.334" stroke="white" stroke-width="2.813" stroke-miterlimit="10"/>
<path d="M678.522 351.529H199.334" stroke="white" stroke-width="2.813" stroke-miterlimit="10"/>
<path d="M678.522 379.435H199.334" stroke="white" stroke-width="2.813" stroke-miterlimit="10"/>
<path d="M504.604 117.52V407.462" stroke="white" stroke-width="2.813" stroke-miterlimit="10"/>
<path d="M592.719 117.52V407.462" stroke="white" stroke-width="2.813" stroke-miterlimit="10"/>
<path d="M895.945 527.373L890.142 528.899L930.844 683.636L936.646 682.11L895.945 527.373Z" fill="#C1D8ED"/>
<path d="M823.93 527.675L799.653 682.425L805.581 683.355L829.858 528.605L823.93 527.675Z" fill="#C1D8ED"/>
<path d="M901.392 379.7C901.392 379.7 950.957 376.569 950.957 419.874C950.957 463.179 943.657 523.7 907.131 530.482C870.605 537.264 816.65 535.22 804.123 533.097C788.732 530.488 782.023 494.786 802.523 492.397C860.7 485.618 832.523 384.4 901.392 379.7Z" fill="#C1D8ED"/>
<path d="M721.5 436.3C721.757 436.293 783.952 436.424 784.075 436.424C792.799 436.424 796.175 441.478 796.175 441.478V444.203H711.138V441.479C714.978 438.876 718.474 436.221 721.5 436.3Z" fill="#DEE8F5"/>
<path d="M733.352 442.152C733.352 442.152 728.865 435.711 721.503 436.303C719.506 436.377 717.548 436.877 715.76 437.771C713.972 438.664 712.397 439.929 711.138 441.481V444.206H757.426V441.481C757.426 441.481 754.056 436.427 745.332 436.427C736.608 436.427 733.352 442.152 733.352 442.152Z" fill="#C1D8ED"/>
<path d="M757.427 444.206H796.173V441.482H757.427V444.206Z" fill="#C1D8ED"/>
<path d="M806.643 652.922L785.705 654.536L787.591 678.994L808.529 677.38L806.643 652.922Z" fill="#E98862"/>
<path d="M760.983 682.691C759.894 682.686 758.851 682.248 758.084 681.474C757.318 680.701 756.889 679.654 756.894 678.565C756.894 678.465 756.894 678.365 756.907 678.265C756.968 677.485 757.25 676.738 757.721 676.113C758.192 675.488 758.832 675.01 759.565 674.736L784.008 666.549C784.481 666.392 784.983 666.34 785.479 666.395C785.975 666.45 786.452 666.612 786.88 666.869C790.24 669.2 794.26 670.392 798.348 670.269C801.532 670.043 804.588 668.926 807.168 667.046C807.395 666.86 807.67 666.742 807.961 666.707C808.252 666.671 808.547 666.719 808.812 666.845C809.077 666.97 809.301 667.169 809.457 667.417C809.614 667.665 809.697 667.953 809.696 668.246V680.2C809.696 680.91 809.414 681.591 808.911 682.094C808.409 682.596 807.728 682.878 807.018 682.878H807.007L760.983 682.691Z" fill="#C1D8ED"/>
<path d="M702.51 651.985L698.396 676.445L719.105 679.928L723.22 655.468L702.51 651.985Z" fill="#E98862"/>
<path d="M691.814 657.347L737.922 479.962C738.952 475.999 741.269 472.489 744.508 469.983C747.748 467.478 751.727 466.118 755.822 466.117H856.87V466.182H913.479V483.53C913.479 488.532 912.494 493.484 910.58 498.105C908.666 502.726 905.861 506.925 902.324 510.462C898.788 513.999 894.589 516.804 889.968 518.718C885.347 520.633 880.395 521.618 875.393 521.618H847.783V521.727H799.583L812.855 662.841L776.017 666.3L763.184 529.85L727.624 666.65L691.814 657.347Z" fill="#0F1011"/>
<path d="M674.679 682.691C673.589 682.686 672.546 682.248 671.78 681.474C671.013 680.7 670.585 679.653 670.59 678.563C670.59 678.463 670.59 678.363 670.603 678.263C670.664 677.483 670.947 676.736 671.418 676.111C671.889 675.485 672.529 675.008 673.262 674.734L697.704 666.547C698.177 666.39 698.679 666.337 699.175 666.392C699.671 666.448 700.149 666.61 700.577 666.867C703.937 669.198 707.956 670.39 712.044 670.267C715.228 670.041 718.285 668.924 720.865 667.044C721.092 666.858 721.367 666.741 721.658 666.705C721.949 666.67 722.244 666.718 722.508 666.844C722.773 666.969 722.997 667.168 723.153 667.416C723.31 667.664 723.392 667.951 723.392 668.244V680.2C723.392 680.91 723.11 681.591 722.607 682.094C722.105 682.596 721.424 682.878 720.714 682.878H720.7L674.679 682.691Z" fill="#C1D8ED"/>
<path d="M768.8 381.4C768.8 381.4 768.65 369.389 760.065 370.014C754.649 370.408 728.914 369.214 728.531 371.558C727.583 377.358 751.123 378.776 753.259 384.18L768.8 381.4Z" fill="#E98862"/>
<path d="M763.109 370.4C763.109 370.4 751.16 366.5 748.223 367.2C745.623 367.818 751.043 372.05 751.043 372.05L763.109 370.4Z" fill="#E98862"/>
<path d="M793.486 444.229H829.81C827.667 455.766 824.944 460.614 827.754 467.066C831.944 476.696 914.274 480.696 915.374 463.756C916.074 452.976 906.574 443.556 906.574 422.556C906.574 401.556 925.904 374.716 910.154 358.966C905.594 354.406 897.694 351.446 888.074 351.436C887.354 357.046 853.284 357.066 853.024 351.566C851.724 351.586 850.714 351.616 850.084 351.636C838.344 352.142 832.59 357.202 830.064 364.755L803.364 412.546L769.226 374.139L750.852 384.471L793.485 434.105L793.486 444.229ZM831.813 418.556C831.828 419.895 831.823 421.173 831.813 422.424H822.827L831.127 407.564C831.502 411.326 831.775 415.023 831.816 418.556H831.813Z" fill="#11CC89"/>
<path d="M853.023 351.566C853.283 357.066 856.283 365.156 865.503 365.756C877.813 366.576 887.353 357.046 888.073 351.436H888.033C875.933 351.436 860.093 351.456 853.023 351.566Z" fill="#E98862"/>
<path d="M778.719 438.99C780.669 440.521 789.11 441 793.489 441.151V424.921C791.259 423.721 788.479 422.171 786.409 420.85C783.539 419.01 782.239 418.48 781.519 418.681H781.509C781.338 418.73 781.185 418.827 781.069 418.961C780.972 419.068 780.897 419.194 780.849 419.33C780.379 420.6 782.529 422.51 783.719 423.451L783.729 423.461C784.159 423.8 784.469 424.021 784.469 424.021L781.929 425.191L781.919 425.201L779.699 426.23L779.669 426.24L778.469 426.791C778.469 426.791 778.259 427.671 778.029 428.961V428.971C777.489 432.06 776.839 437.521 778.719 438.99Z" fill="#E98862"/>
<path d="M764.312 439.012L769.473 437.253L784.674 422.535L786.737 420.53L790.424 416.965L786.971 413.406L783.251 417.01L781.182 419.007L766.028 433.687L764.312 439.012Z" fill="#0CBC8B"/>
<path d="M781.182 419.007L784.674 422.535L786.737 420.53L783.251 417.01L781.182 419.007Z" fill="white"/>
<path d="M782.935 423.7C781.627 423.725 780.321 423.833 779.027 424.024C777.694 424.197 776.38 424.493 775.101 424.909C774.39 425.135 773.702 425.427 773.047 425.783C772.679 425.984 772.328 426.215 771.998 426.473L771.263 427.109C770.295 427.98 769.412 428.942 768.625 429.98C768.411 430.266 768.304 430.618 768.324 430.975C768.345 431.331 768.49 431.669 768.736 431.929C768.981 432.188 769.31 432.353 769.665 432.393C770.02 432.433 770.378 432.347 770.675 432.149L770.746 432.102L773.646 430.158L774.371 429.681C774.539 429.585 774.713 429.5 774.892 429.426C775.337 429.245 775.798 429.105 776.268 429.006C777.352 428.78 778.448 428.623 779.552 428.536C780.679 428.447 781.881 428.38 782.969 428.361H783.02C783.326 428.356 783.628 428.29 783.908 428.168C784.189 428.046 784.443 427.87 784.656 427.65C784.868 427.429 785.035 427.17 785.147 426.885C785.259 426.6 785.314 426.296 785.309 425.99C785.304 425.684 785.238 425.382 785.116 425.101C784.994 424.821 784.818 424.567 784.598 424.354C784.377 424.142 784.118 423.975 783.833 423.863C783.548 423.751 783.244 423.696 782.938 423.701L782.935 423.7Z" fill="#E98862"/>
<path d="M689.878 453.921H680.487V682.878H689.878V453.921Z" fill="#C1D8ED"/>
<path d="M889.805 454.511H880.414V683.468H889.805V454.511Z" fill="#C1D8ED"/>
<path d="M970.77 453.921H961.379V682.878H970.77V453.921Z" fill="#C1D8ED"/>
<g opacity="0.05">
<path d="M689.878 453.921H680.487V682.878H689.878V453.921Z" fill="black"/>
</g>
<g opacity="0.05">
<path d="M970.77 453.921H961.379V682.878H970.77V453.921Z" fill="black"/>
</g>
<path d="M609.878 453.921H600.487V682.878H609.878V453.921Z" fill="#C1D8ED"/>
<path d="M983.753 444.465H587.503V457.378H983.753V444.465Z" fill="#C1D8ED"/>
<path d="M685.961 386.669L698.1 437.641C698.288 438.434 698.295 439.259 698.119 440.055C697.943 440.851 697.589 441.597 697.084 442.237C696.579 442.876 695.935 443.394 695.202 443.749C694.469 444.105 693.664 444.29 692.849 444.29H621.268C620.085 444.29 618.935 443.901 617.995 443.184C617.054 442.467 616.375 441.461 616.062 440.321L602.071 389.35C601.851 388.549 601.819 387.708 601.978 386.892C602.136 386.077 602.481 385.309 602.984 384.648C603.488 383.987 604.138 383.452 604.882 383.083C605.627 382.714 606.446 382.522 607.277 382.522H680.709C681.923 382.522 683.102 382.931 684.055 383.684C685.008 384.436 685.679 385.488 685.961 386.669Z" fill="#9EBCEA"/>
<path d="M723.587 444.29H637.068C636.227 444.29 635.42 443.956 634.825 443.361C634.23 442.766 633.896 441.959 633.896 441.118V441.118C633.896 440.277 634.23 439.47 634.825 438.875C635.42 438.28 636.227 437.946 637.068 437.946H723.587C724.428 437.946 725.235 438.28 725.83 438.875C726.425 439.47 726.759 440.277 726.759 441.118V441.118C726.759 441.959 726.425 442.766 725.83 443.361C725.235 443.956 724.428 444.29 723.587 444.29V444.29Z" fill="#9EBCEA"/>
<path d="M647.156 421.369C651.832 421.369 655.622 417.579 655.622 412.903C655.622 408.227 651.832 404.437 647.156 404.437C642.48 404.437 638.69 408.227 638.69 412.903C638.69 417.579 642.48 421.369 647.156 421.369Z" fill="white"/>
<path d="M844.344 296.248C844.344 296.248 836.764 323.407 832.506 337.5C832.304 338.168 832.262 338.873 832.382 339.561C832.502 340.248 832.781 340.897 833.197 341.457C833.613 342.017 834.155 342.471 834.778 342.784C835.401 343.097 836.089 343.26 836.787 343.259H863.387C864.536 343.259 865.641 342.816 866.472 342.023C867.304 341.23 867.798 340.148 867.853 339L869.646 301.193L844.344 296.248Z" fill="#0F1011"/>
<path d="M885.11 356.662C885.11 356.662 877.373 352.569 879.081 331.511L863.1 328.563C863.1 328.563 864.912 347.44 856.835 353.441L885.11 356.662Z" fill="#E98862"/>
<g opacity="0.15">
<path d="M860.107 349.492L873.37 339.326L862.946 339.226C862.647 342.795 861.684 346.277 860.107 349.492V349.492Z" fill="black"/>
</g>
<path d="M888.139 323.339C887.039 329.728 883.558 335.781 877.924 337.849C871.784 340.293 865.139 341.197 858.569 340.482C841.078 339.064 844.502 299.293 852.799 291.561C861.096 283.829 885.469 288.699 888.445 301.616C889.984 308.3 889.186 317.262 888.139 323.339Z" fill="#E98862"/>
<path d="M863.114 318.44C863.914 318.44 864.563 317.791 864.563 316.991C864.563 316.191 863.914 315.542 863.114 315.542C862.314 315.542 861.665 316.191 861.665 316.991C861.665 317.791 862.314 318.44 863.114 318.44Z" fill="#0F1011"/>
<path d="M851.682 317.513C852.482 317.513 853.131 316.864 853.131 316.064C853.131 315.264 852.482 314.615 851.682 314.615C850.882 314.615 850.233 315.264 850.233 316.064C850.233 316.864 850.882 317.513 851.682 317.513Z" fill="#0F1011"/>
<path d="M849.168 312.979H849.177L853.016 312.927C853.197 312.925 853.369 312.851 853.495 312.721C853.621 312.592 853.69 312.418 853.688 312.237C853.686 312.056 853.612 311.884 853.482 311.758C853.353 311.632 853.179 311.563 852.998 311.565L849.159 311.617C849.07 311.618 848.981 311.636 848.899 311.671C848.816 311.705 848.742 311.756 848.679 311.82C848.616 311.883 848.566 311.959 848.533 312.042C848.499 312.124 848.482 312.213 848.482 312.302C848.483 312.392 848.501 312.48 848.536 312.563C848.571 312.645 848.621 312.72 848.685 312.783C848.749 312.846 848.824 312.895 848.907 312.929C848.99 312.963 849.079 312.98 849.168 312.979V312.979Z" fill="#0F1011"/>
<path d="M866.238 314.363C866.405 314.363 866.565 314.302 866.69 314.191C866.814 314.08 866.894 313.928 866.913 313.762C866.933 313.597 866.891 313.43 866.796 313.293C866.701 313.156 866.559 313.059 866.397 313.02L862.612 312.113C862.524 312.09 862.433 312.084 862.343 312.097C862.253 312.11 862.167 312.14 862.089 312.187C862.011 312.233 861.943 312.295 861.889 312.368C861.836 312.441 861.797 312.524 861.776 312.612C861.755 312.701 861.751 312.792 861.766 312.882C861.781 312.971 861.813 313.057 861.861 313.134C861.91 313.211 861.973 313.277 862.047 313.329C862.121 313.381 862.205 313.418 862.294 313.437L866.078 314.344C866.13 314.357 866.184 314.363 866.238 314.363Z" fill="#0F1011"/>
<path d="M862.454 328.4C862.454 328.4 857.106 328.969 853.354 327.663C853.354 327.663 853.387 331.185 857.62 331.529C861.853 331.873 862.454 328.4 862.454 328.4Z" fill="white"/>
<g opacity="0.15">
<path d="M856.688 325.034C856.808 325.034 856.924 324.991 857.014 324.913C857.105 324.835 857.165 324.727 857.183 324.608C857.2 324.49 857.175 324.369 857.111 324.268C857.048 324.166 856.949 324.091 856.835 324.056L853.888 323.156L855.945 318.563C855.993 318.443 855.992 318.31 855.944 318.19C855.895 318.071 855.802 317.975 855.684 317.922C855.567 317.869 855.433 317.864 855.312 317.908C855.19 317.951 855.091 318.04 855.033 318.155L852.513 323.781L856.542 325.015C856.589 325.029 856.639 325.035 856.688 325.034V325.034Z" fill="black"/>
</g>
<path d="M843.432 299.5C843.432 299.5 845.993 278.787 879.182 283.874C887.456 285.142 899.182 291.602 901.082 312.774C901.95 322.486 905.298 331.643 907.852 337.439C908.154 338.119 908.282 338.865 908.223 339.607C908.164 340.349 907.921 341.065 907.515 341.689C907.11 342.314 906.555 342.827 905.9 343.183C905.246 343.538 904.514 343.724 903.769 343.725L880.439 343.733C879.853 343.734 879.272 343.62 878.73 343.397C878.188 343.173 877.695 342.845 877.28 342.431C876.864 342.018 876.535 341.526 876.31 340.985C876.084 340.444 875.968 339.863 875.967 339.277C875.967 339.211 875.967 339.146 875.967 339.077C876.135 335.106 876.267 328.383 876.041 318.107C874.828 312.242 878.059 308.107 873.369 309.455C855.955 314.456 844.74 299.839 843.432 299.5Z" fill="#0F1011"/>
<path d="M870.436 323.23C870.371 324.034 870.465 324.843 870.712 325.611C870.96 326.379 871.356 327.09 871.878 327.705C872.933 328.946 874.439 329.718 876.062 329.849C877.686 329.981 879.296 329.462 880.537 328.407C881.779 327.352 882.55 325.847 882.682 324.223C882.838 322.629 882.354 321.038 881.337 319.8C880.321 318.563 878.854 317.779 877.26 317.623C877.192 317.616 877.124 317.61 877.06 317.606C872.677 317.462 870.711 319.848 870.436 323.23Z" fill="#E98862"/>
<path d="M301.893 673.028L281.04 670.547C281.979 662.655 283.04 653.174 283.112 651.62C283.112 651.72 283.112 651.801 283.112 651.865H304.112C304.107 652.5 304.107 654.41 301.893 673.028Z" fill="#E98862"/>
<path d="M218.218 675.537L197.218 675.469C197.218 675.469 197.288 653.785 197.288 651.869H218.288C218.288 653.79 218.218 675.537 218.218 675.537Z" fill="#E98862"/>
<path d="M272.646 666.4L309.641 665.769C308.103 626.806 307.841 582.241 307.427 541.914C303.778 489.046 295.871 436.714 287.319 384.363L287.052 384.442L286.27 379.112L210.194 374.417C204.994 431.617 199.494 547.517 191.805 665.207L228.674 668.322C235.317 600.533 245.6 501.763 251.92 430.552C270.073 508.164 274.217 587.177 272.646 666.4Z" fill="#262626"/>
<path d="M243.746 683.66C248.195 683.76 249.366 677.144 245.163 675.704C243.45 675.604 218.844 665.619 217.849 667.836C204.47 677.212 195.849 663.814 195.033 669.216V681.169C195.033 681.522 195.103 681.871 195.238 682.196C195.373 682.522 195.571 682.818 195.821 683.067C196.071 683.315 196.368 683.512 196.694 683.646C197.02 683.78 197.369 683.848 197.722 683.847L243.746 683.66Z" fill="#C1D8ED"/>
<path d="M327.479 683.66C331.928 683.76 333.1 677.144 328.897 675.704C327.183 675.604 302.578 665.619 301.582 667.836C288.204 677.212 279.587 663.814 278.767 669.216V681.169C278.767 681.522 278.837 681.871 278.972 682.196C279.107 682.522 279.306 682.818 279.555 683.067C279.805 683.315 280.102 683.512 280.428 683.646C280.754 683.78 281.103 683.848 281.456 683.847L327.479 683.66Z" fill="#C1D8ED"/>
<path d="M308.533 345.749C315.033 344.849 332.8 344.999 315.406 350.149Z" fill="#E98862"/>
<path d="M306.918 358.086C306.918 358.086 327.684 366.617 339.618 356.886C339.916 356.635 340.133 356.301 340.24 355.927C340.347 355.552 340.341 355.154 340.221 354.784C340.101 354.413 339.873 354.086 339.567 353.846C339.261 353.605 338.89 353.461 338.501 353.432C330.458 352.955 313.937 351.332 315.866 346.032H302.891" fill="#E98862"/>
<path d="M323.923 334.507C325.86 334.505 327.76 333.978 329.422 332.983C331.083 331.988 332.445 330.561 333.361 328.855L361.909 275.549L343.032 265.44L321.12 306.359L285.358 272.345L272.4 289.576C276.872 292.275 318.344 337.324 323.923 334.507Z" fill="#367CFF"/>
<path d="M292.781 384.758C288.509 394.577 206.562 398.658 205.44 381.383C204.726 370.391 209.413 360.796 209.413 339.373C206.551 310.005 184.325 268.292 231.276 266.856C232.01 272.577 266.74 272.597 267.004 266.989C303.804 265.811 289.462 305.836 288.641 335.305C288.244 368.4 297.186 374.643 292.781 384.758Z" fill="#367CFF"/>
<path d="M267 266.989C266.274 290.508 233.508 281.122 231.272 266.856C243.625 266.856 259.8 266.877 267 266.989Z" fill="#E98862"/>
<path d="M247.037 367C247.281 367.007 311.157 365.045 311.45 365.041L310.771 342.819L253.944 344.551L223.962 281.811L203.9 291.4L237.007 360.68C237.912 362.573 239.334 364.17 241.109 365.289C242.884 366.407 244.939 367 247.037 367V367Z" fill="#367CFF"/>
<path d="M365.925 264.144L358.605 273.784L344.085 266C346.685 262.04 353.005 256.9 353.005 256.9L365.925 264.144Z" fill="#E98862"/>
<path d="M350.417 265.806C350.417 265.806 346.117 263.652 348.875 260.746C352.522 256.907 357.356 252.774 360.154 254.261C361.916 255.198 356.922 260.572 353.154 264.342" fill="#E98862"/>
<path d="M241.188 253.39C241.198 253.11 241.198 252.841 241.198 252.55C241.208 250.731 241.129 248.75 240.948 246.591L243.048 246.2L256.927 243.63C256.65 247.181 256.704 250.749 257.088 254.29C257.137 254.69 257.188 255.101 257.247 255.511C257.287 255.83 257.338 256.16 257.397 256.481C257.456 256.802 257.497 257.11 257.567 257.42C257.687 258.08 257.827 258.741 257.997 259.39C258.028 259.546 258.068 259.7 258.117 259.851C258.12 259.878 258.126 259.905 258.137 259.93C258.217 260.261 258.317 260.601 258.427 260.92C258.537 261.29 258.657 261.65 258.798 262.011C258.838 262.12 258.878 262.241 258.927 262.351C259.057 262.711 259.207 263.06 259.367 263.4C259.537 263.79 259.727 264.17 259.927 264.54C259.93 264.54 259.932 264.541 259.934 264.543C259.936 264.545 259.937 264.547 259.937 264.55C260.691 266.027 261.752 267.326 263.048 268.36H237.918C239.468 265.68 241.068 261.07 241.188 253.39Z" fill="#E98862"/>
<path opacity="0.15" d="M259.941 264.555L246.669 254.4L257.093 254.292C257.395 257.86 258.361 261.341 259.941 264.555V264.555Z" fill="black"/>
<path d="M231.886 238.427C232.992 244.815 236.479 250.865 242.114 252.927C248.803 255.377 253.758 255.543 261.471 255.543C271.997 255.543 271.649 244.566 271.944 233.505C272.244 222.399 271.358 210.486 267.198 206.616C258.898 198.892 234.525 203.784 231.561 216.704C230.028 223.387 230.834 232.346 231.886 238.427Z" fill="#E98862"/>
<path d="M278.447 206.494C276.686 200.038 271.199 196.883 262.124 199.255C255.67 200.942 254.853 199.425 249.388 196.794C246.258 195.287 235.988 195.976 233.447 202.926C230.723 210.372 222.295 204.342 221.512 216.472C220.858 226.625 222.824 239.811 234.103 248.685C235.902 250.493 237.947 252.04 240.176 253.279C241.133 253.848 241.365 253.385 241.697 252.323C242.871 248.567 245.245 235.435 244.275 224.749C244.116 222.991 244.444 220.259 248.952 220.069C253.876 219.862 266.673 220.969 271.202 217.723C271.2 217.723 280.208 212.951 278.447 206.494Z" fill="#0F1011"/>
<path d="M256.905 233.506C257.705 233.506 258.354 232.857 258.354 232.057C258.354 231.257 257.705 230.608 256.905 230.608C256.105 230.608 255.456 231.257 255.456 232.057C255.456 232.857 256.105 233.506 256.905 233.506Z" fill="#0F1011"/>
<path d="M268.336 232.569C269.136 232.569 269.785 231.92 269.785 231.12C269.785 230.32 269.136 229.671 268.336 229.671C267.536 229.671 266.887 230.32 266.887 231.12C266.887 231.92 267.536 232.569 268.336 232.569Z" fill="#0F1011"/>
<path d="M270.847 228.032H270.839L267 227.984C266.824 227.976 266.658 227.9 266.537 227.773C266.415 227.645 266.348 227.475 266.349 227.299C266.35 227.123 266.42 226.954 266.543 226.828C266.666 226.702 266.833 226.629 267.009 226.623H267.017L270.856 226.67C271.037 226.671 271.209 226.744 271.336 226.873C271.463 227.001 271.534 227.175 271.533 227.356C271.531 227.536 271.458 227.709 271.33 227.836C271.201 227.963 271.028 228.033 270.847 228.032V228.032Z" fill="#0F1011"/>
<path d="M253.777 229.431C253.611 229.431 253.45 229.369 253.326 229.258C253.201 229.148 253.122 228.995 253.102 228.83C253.083 228.664 253.125 228.497 253.22 228.361C253.315 228.224 253.457 228.127 253.619 228.088L257.403 227.177C257.579 227.135 257.764 227.164 257.918 227.259C258.072 227.353 258.182 227.505 258.225 227.681C258.267 227.856 258.237 228.041 258.143 228.196C258.049 228.35 257.897 228.46 257.721 228.502L253.937 229.413C253.885 229.425 253.831 229.431 253.777 229.431V229.431Z" fill="#0F1011"/>
<path d="M249.367 235.6C249.445 236.41 249.361 237.228 249.12 238.006C248.879 238.783 248.486 239.505 247.963 240.129C247.441 240.753 246.799 241.268 246.076 241.642C245.354 242.016 244.564 242.243 243.752 242.309C242.941 242.376 242.124 242.28 241.35 242.028C240.576 241.776 239.86 241.373 239.243 240.841C238.627 240.31 238.121 239.662 237.757 238.934C237.393 238.205 237.178 237.412 237.123 236.6C237.043 235.793 237.126 234.979 237.368 234.205C237.609 233.431 238.004 232.714 238.528 232.096C239.053 231.478 239.696 230.972 240.42 230.608C241.144 230.243 241.934 230.029 242.743 229.976C247.121 229.839 249.09 232.221 249.367 235.6Z" fill="#E98862"/>
<g opacity="0.15">
<path d="M263.337 240.094C263.217 240.094 263.101 240.051 263.011 239.973C262.92 239.895 262.86 239.787 262.842 239.668C262.825 239.55 262.85 239.429 262.914 239.328C262.977 239.226 263.076 239.151 263.19 239.116L266.137 238.211L264.076 233.621C264.048 233.561 264.033 233.496 264.03 233.43C264.027 233.364 264.038 233.298 264.061 233.236C264.084 233.174 264.119 233.117 264.165 233.069C264.21 233.02 264.264 232.981 264.325 232.954C264.385 232.927 264.45 232.912 264.516 232.91C264.582 232.909 264.648 232.92 264.71 232.944C264.772 232.968 264.828 233.004 264.876 233.05C264.924 233.095 264.962 233.15 264.988 233.211L267.281 238.317C267.31 238.382 267.325 238.452 267.326 238.523C267.326 238.594 267.31 238.664 267.281 238.729C267.252 238.794 267.209 238.851 267.156 238.898C267.103 238.945 267.04 238.98 266.972 239.001L263.484 240.072C263.436 240.087 263.387 240.094 263.337 240.094V240.094Z" fill="black"/>
</g>
<path d="M257.575 243.468C257.575 243.468 262.924 244.033 266.675 242.723C266.675 242.723 266.645 246.245 262.413 246.592C258.181 246.939 257.575 243.468 257.575 243.468Z" fill="#F8FCFF"/>
</g>
<defs>
<clipPath id="clip0_112_418">
<rect width="836.773" height="647.847" fill="white" transform="translate(157 36)"/>
</clipPath>
</defs>
</svg>
